# xmcd
#
# Track frame offsets:
#	150
#	35783
#	50335
#	70379
#	90952
#	101819
#	117551
#	138827
#	176223
#	196232
#	220328
#	238413
#	261261
#	281348
#	297338
#	311573
#	332777
#
# Disc length: 4657 seconds
#
# Revision: 0
# Processed by: cddbd v1.5.2PL0 Copyright (c) Steve Scherf et al.
# Submitted via: EasyCDDAExtractor 11.1.0.1
#
DISCID=10122f11
DTITLE=Robert Earl Keen - Live From Austin Texas
DYEAR=2001
DGENRE=Country
TTITLE0=Dreadful Selfish Crime
TTITLE1=Blow You Away
TTITLE2=Shades Of Gray
TTITLE3=I'm Goin' To Town
TTITLE4=That Buckin' Song
TTITLE5=I Still Miss Someone
TTITLE6=The Coming Home Of The Son And Brother
TTITLE7=The Road Goes On Forever
TTITLE8=Merry Christmas From The Family
TTITLE9=Snowin' On Raton
TTITLE10=Not A Drop Of Rain
TTITLE11=Wild Wind
TTITLE12=Goin' Nowhere Blues
TTITLE13=Down That Dusty Trail
TTITLE14=Feelin' Good Again
TTITLE15=Walkin' Cane
TTITLE16=Travelin' Light
EXTD=
EXTT0=
EXTT1=
EXTT2=
EXTT3=
EXTT4=
EXTT5=
EXTT6=
EXTT7=
EXTT8=
EXTT9=
EXTT10=
EXTT11=
EXTT12=
EXTT13=
EXTT14=
EXTT15=
EXTT16=
PLAYORDER=
